# xmcd
#
# Track frame offsets: 
#        300
#        24048
#        46280
#        67380
#        90067
#        112846
#        134937
#        158848
#        175710
#        197566
#
# Disc length: 2959 seconds
#
# Revision: 3
# Processed by: cddbd v1.5.2PL0 Copyright (c) Steve Scherf et al.
# Submitted via: ExactAudioCopy v1.0b1
#
DISCID=7c0b8b0a
DTITLE=Robert Cray - Time will tell
DYEAR=2003
DGENRE=Contemporary Blues
TTITLE0=Survivor
TTITLE1=Up in the sky
TTITLE2=Back door slam
TTITLE3=I didn't know
TTITLE4=Your pal
TTITLE5=Lotta lovin'
TTITLE6=What you need (Good man)
TTITLE7=Spare some love!
TTITLE8=Distant shore
TTITLE9=Time makes two
EXTD=YEAR: 2003
EXTT0=
EXTT1=
EXTT2=
EXTT3=
EXTT4=
EXTT5=
EXTT6=
EXTT7=
EXTT8=
EXTT9=
PLAYORDER=
